<svg xmlns="http://www.w3.org/2000/svg" xmlns:xlink="http://www.w3.org/1999/xlink" width="80" height="80" viewBox="0 0 80 80">
  <defs>
    <clipPath id="clip-path">
      <rect id="長方形_25" data-name="長方形 25" width="80" height="80" transform="translate(754 44)" fill="#fff" stroke="#707070" stroke-width="1"/>
    </clipPath>
  </defs>
  <g id="マスクグループ_4" data-name="マスクグループ 4" transform="translate(-754 -44)" clip-path="url(#clip-path)">
    <g id="logo" transform="translate(729.87 20.803)">
      <g id="グループ_80" data-name="グループ 80" transform="translate(21.544 87.679)">
        <path id="パス_41" data-name="パス 41" d="M1.041,0V-8.344H2.421L4.665-3.192V-1.1H4.3L2.421-5.739V0ZM5.129-3.168,7.37-8.344H8.751V0H7.37V-5.739L5.5-1.1H5.129Zm9.645-5.162L17.671,0h-1.4L14.106-6.249,11.919,0H10.5l2.921-8.331ZM13.336-2.648h1.517l.327.917H13.019Zm9.928-4.4h0a.719.719,0,0,1-.137-.08h0a.879.879,0,0,0-.227-.106h0a2.063,2.063,0,0,0-.374-.085h0a2.9,2.9,0,0,0-.577-.013h0V-8.48h0a6.484,6.484,0,0,1,1.012.108h0a2.351,2.351,0,0,1,.832.3h0q-.067.147-.157.322h0q-.09.175-.17.327h0q-.08.155-.137.255h0A1.011,1.011,0,0,1,23.264-7.053Zm-3.905.907h0a2.237,2.237,0,0,1,.17-.894h0a2.26,2.26,0,0,1,.459-.7h0a2.171,2.171,0,0,1,.677-.474h0a2.942,2.942,0,0,1,.822-.232h0v1.188h0a1.243,1.243,0,0,0-.6.435h0a1.034,1.034,0,0,0-.237.629h0a1.044,1.044,0,0,0,.237.714h0a2.223,2.223,0,0,0,.6.477h0v1.291h0q-.374-.183-.747-.392h0a3.543,3.543,0,0,1-.68-.492h0a2.413,2.413,0,0,1-.5-.657h0A1.882,1.882,0,0,1,19.359-6.146ZM19.3-.554l.237-.974h0a2.4,2.4,0,0,0,.4.175h0q.242.085.5.157h0a5.174,5.174,0,0,0,.52.121h0a2.942,2.942,0,0,0,.487.044h.033V.046h-.023q-.27,0-.559-.028h0a4.374,4.374,0,0,1-.585-.1h0a3.006,3.006,0,0,1-.559-.185h0A1.74,1.74,0,0,1,19.3-.554Zm2.648-2.9V-4.776h0q.374.167.765.361h0a3.266,3.266,0,0,1,.706.471h0a2.227,2.227,0,0,1,.52.672h0a2.119,2.119,0,0,1,.206.984h0a2.105,2.105,0,0,1-.155.793h0a2.32,2.32,0,0,1-.43.7h0a2.4,2.4,0,0,1-.685.528h0A2.726,2.726,0,0,1,21.95.01h0V-1.074h0a1.135,1.135,0,0,0,.927-1.234h0a.89.89,0,0,0-.26-.657h0a3.006,3.006,0,0,0-.667-.487ZM25.1-8.344h6.35v.93H28.957V0h-1.37V-7.414H25.1ZM33.1,0V-8.344h1.381V0Zm4.866-4.686v.927H34.946v-.927ZM34.946,0V-1.03h3.372V0Zm0-8.344h3.372v1.03H34.946ZM40.152,0V-8.344h1.36V0ZM43.91-3.282,45.814,0H44.377L42.8-3.022h0a.607.607,0,0,0-.075.005h0a.985.985,0,0,1-.118.005h-.634v-1h.77a1.536,1.536,0,0,0,.5-.085h0a1.245,1.245,0,0,0,.453-.276h0a1.36,1.36,0,0,0,.327-.538h0a2.51,2.51,0,0,0,.126-.855h0a2.277,2.277,0,0,0-.057-.469h0a1.362,1.362,0,0,0-.232-.51h0a1.4,1.4,0,0,0-.495-.407h0a1.819,1.819,0,0,0-.837-.165h-.554v-1.03h.577a3.373,3.373,0,0,1,1.054.17h0a2.834,2.834,0,0,1,.933.51h0a2.661,2.661,0,0,1,.67.822h0a2.28,2.28,0,0,1,.252,1.079h0a2.739,2.739,0,0,1-.417,1.54h0a2.523,2.523,0,0,1-1.133.94ZM50.737,0V-8.344H52.1V0Zm1.824-8.344h.577a3.389,3.389,0,0,1,1.054.17h0a2.834,2.834,0,0,1,.933.51h0a2.629,2.629,0,0,1,.667.822h0a2.261,2.261,0,0,1,.255,1.079h0a2.971,2.971,0,0,1-.214,1.149h0a2.424,2.424,0,0,1-.6.866h0A2.643,2.643,0,0,1,54.3-3.2h0a3.563,3.563,0,0,1-1.2.193h-.544v-1h.781a1.476,1.476,0,0,0,.492-.085h0a1.254,1.254,0,0,0,.448-.276h0a1.36,1.36,0,0,0,.327-.538h0a2.51,2.51,0,0,0,.126-.855h0a2.277,2.277,0,0,0-.057-.469h0a1.342,1.342,0,0,0-.234-.51h0a1.376,1.376,0,0,0-.492-.407h0a1.819,1.819,0,0,0-.837-.165h-.554Zm6.44,0V0H57.62V-8.344ZM61.118,0V-8.344H62.5V0Zm4.869-4.686v.927H62.962v-.927ZM62.962,0V-1.03h3.375V0Zm0-8.344h3.375v1.03H62.962Zm10.881.77-.94.837h0a1.845,1.845,0,0,0-.556-.44h0a1.654,1.654,0,0,0-.634-.17h0V-8.467h0a3.148,3.148,0,0,1,2.13.894ZM71.713.057V-1.064h0a1.871,1.871,0,0,0,.641-.18h0a1.834,1.834,0,0,0,.549-.43h0l.94.824h0A3.117,3.117,0,0,1,72.88-.2h0a3.421,3.421,0,0,1-1.167.26ZM68.047-4.212h0a5.932,5.932,0,0,1,.242-1.777h0a3.9,3.9,0,0,1,.672-1.3h0a3.059,3.059,0,0,1,1.015-.827h0a3.418,3.418,0,0,1,1.273-.35h0v1.131h0a1.884,1.884,0,0,0-.7.255h0a1.829,1.829,0,0,0-.577.572h0a2.985,2.985,0,0,0-.392.945h0a6.008,6.008,0,0,0-.152,1.352h0a6,6,0,0,0,.152,1.36h0a3.16,3.16,0,0,0,.392.951h0a1.829,1.829,0,0,0,.582.587h0a1.763,1.763,0,0,0,.7.25h0V.046h0a3.284,3.284,0,0,1-1.273-.34h0a3.1,3.1,0,0,1-1.015-.827h0a3.922,3.922,0,0,1-.672-1.309h0A5.984,5.984,0,0,1,68.047-4.212ZM75.824,0V-8.344h1.381V0ZM80.69-4.686v.927H77.669v-.927ZM77.669,0V-1.03h3.372V0Zm0-8.344h3.372v1.03H77.669Z" transform="translate(1.546 12.154)" fill="#dcc090"/>
      </g>
      <g id="グループ_83" data-name="グループ 83" transform="translate(42.761 26.505)">
        <g id="グループ_81" data-name="グループ 81">
          <path id="パス_42" data-name="パス 42" d="M21.617,50.047l-.251-.1a41.787,41.787,0,0,1-10.086-6.035C4.636,38.537,1.124,31.97,1.124,24.925c0-12.337,0-16.817.006-16.905l.01-.33.263-.2A35.669,35.669,0,0,1,21.616,1.334,32.4,32.4,0,0,1,41.739,8.376l.231.2L42.108,19.5A31.363,31.363,0,0,1,40.3,31.467c-2.091,5.958-6.986,14-18.434,18.482ZM2.509,8.4c0,.913,0,4.273,0,16.527,0,15.053,16.871,22.689,19.117,23.638C30.279,45.1,36.125,39.2,39,31.011A30.315,30.315,0,0,0,40.731,19.6l0-.052L40.6,9.223A31.773,31.773,0,0,0,21.616,2.715,35.192,35.192,0,0,0,2.509,8.4Z" fill="#dcc090"/>
        </g>
        <g id="グループ_82" data-name="グループ 82">
          <path id="パス_43" data-name="パス 43" d="M21.616,51.382l-.264-.1a44.054,44.054,0,0,1-10.638-6.365C3.7,39.241,0,32.314,0,24.883,0,11.87,0,7.145.006,7.052L.017,6.7l.277-.21A37.622,37.622,0,0,1,21.615,0,34.177,34.177,0,0,1,42.84,7.427l.244.214.145,11.523a33.064,33.064,0,0,1-1.906,12.62c-2.206,6.285-7.37,14.77-19.444,19.494ZM1.461,7.45c0,.963,0,4.507,0,17.432,0,15.878,17.8,23.933,20.164,24.934,9.132-3.648,15.3-9.875,18.33-18.514a31.961,31.961,0,0,0,1.826-12.038l0-.055L41.636,8.321A33.516,33.516,0,0,0,21.614,1.456,37.118,37.118,0,0,0,1.461,7.45Z" fill="#dcc090"/>
        </g>
      </g>
      <g id="グループ_84" data-name="グループ 84" transform="translate(51.738 33.975)">
        <path id="パス_44" data-name="パス 44" d="M9.416,17.9a11.713,11.713,0,0,0,1.192.48,4.279,4.279,0,0,0,.789.051l-.368,1.9c0-.016-.141-1.342-.751-1.177a1.987,1.987,0,0,1-2.128-.488,1.853,1.853,0,0,0-.912-.519,2.5,2.5,0,0,1,.631-.281A3.032,3.032,0,0,1,9.416,17.9ZM9.245,9.15c-.506.171-1.044.376-1.593.62l.039.038c.025.023.059.056.075.069l.075.066a3.732,3.732,0,0,0,.7.457c.262.136.547.262.843.4s.584.3.868.459.552.339.811.523a7.178,7.178,0,0,1,.72.593,4.3,4.3,0,0,1,.573.667,3.123,3.123,0,0,1,.306.54l.417-4.725-.417-.271A10.675,10.675,0,0,0,9.245,9.15ZM.82,19.286a6.462,6.462,0,0,0,.751-.565,8.181,8.181,0,0,0,.75-.752c.5-.556.993-1.206,1.586-1.828l.228-.231.247-.229.232-.2.269-.208a7.022,7.022,0,0,1,1.1-.663,6.252,6.252,0,0,1,1.144-.42,5.441,5.441,0,0,1,1.091-.174,4.924,4.924,0,0,1,.5-.009c.158,0,.308.014.448.028s.271.035.392.054c.072.01.142.025.21.04a2.786,2.786,0,0,1,.687.068,6.2,6.2,0,0,1,1.18.446c0-.017,0-.034,0-.053l0-.042c0-.011,0-.016,0-.025s0-.034-.005-.053a1.36,1.36,0,0,0-.059-.33,2,2,0,0,0-.206-.462,3.625,3.625,0,0,0-.385-.532,6.066,6.066,0,0,0-.559-.549c-.212-.181-.442-.36-.687-.535s-.506-.354-.76-.508-.545-.321-.822-.5a4.435,4.435,0,0,1-.772-.63l-.083-.09c-.036-.039-.05-.06-.076-.091-.045-.055-.093-.116-.141-.179l-.016-.022A11.276,11.276,0,0,0,1,16.448c-.1.291-.206.578-.322.862a9.307,9.307,0,0,0-.6,2.37l.043-.019A5.475,5.475,0,0,0,.82,19.286Zm3.077,7.6a4.923,4.923,0,0,1,.7-1.4l.127-.167c.042-.053.077-.089.116-.134l.113-.128.139-.143.47-.482a5.906,5.906,0,0,0,.752-.912,1.471,1.471,0,0,0,.258-.808.746.746,0,0,0-.02-.181.965.965,0,0,0-.04-.155L6.5,22.339l0-.018-.015-.03-.06-.123-.059-.121-.006-.014,0-.005-.032-.055c-.168-.287-.341-.573-.482-.878a3.082,3.082,0,0,1-.238-.742,4.591,4.591,0,0,1,.193-2.4,6.511,6.511,0,0,1,1.291-2.483,4.681,4.681,0,0,0-.628.2,5.952,5.952,0,0,0-.957.491l-.222.147-.245.182-.215.173-.22.188c-.587.514-1.134,1.128-1.718,1.661a8.941,8.941,0,0,1-.889.731,5.765,5.765,0,0,1-.894.535,3.488,3.488,0,0,1-.845.279c-.073.014-.144.024-.212.032-.21,2.468.32,6.18,3.746,10.422-.049-.266-.093-.546-.122-.849a7.848,7.848,0,0,1-.027-1.337A6.014,6.014,0,0,1,3.9,26.886Zm7.282,1.878a1.81,1.81,0,0,1-.383.79,4.2,4.2,0,0,1-.55-1.667,14.228,14.228,0,0,1,2.416-1.156l.369-3.366-.369-.291c-.071,0-.143-.005-.215,0a7.388,7.388,0,0,0-2.3.508S10.1,24.561,11.9,25.4a.871.871,0,0,1,.268.729.083.083,0,0,0,0,.032,6.983,6.983,0,0,1-2.525,1.206,1.335,1.335,0,0,1-1.263-.437,2.5,2.5,0,0,1-.722-2,6.568,6.568,0,0,0-.018-1.364,2.755,2.755,0,0,1-.335.677,6.178,6.178,0,0,1-.96,1.1l-.5.459-.061.056-.031.028-.015.014-.007.007.011-.011h0l-.12.121c-.038.039-.085.084-.116.119l-.086.1A3.8,3.8,0,0,0,4.8,27.255a5.876,5.876,0,0,0-.344,1.19,9.329,9.329,0,0,0-.13,1.2c-.006.2-.008.386-.007.571s0,.371.009.541c.006.155.016.3.027.444.09.1.182.208.276.312a18.6,18.6,0,0,0,3.815,3.247,3.712,3.712,0,0,1-.086-.5,6.842,6.842,0,0,1,.17-2.269,10.279,10.279,0,0,1,.421-1.177,4.5,4.5,0,0,0,.538,2.891,6.376,6.376,0,0,1,.724,1.882c.01.05.017.1.023.146a10.739,10.739,0,0,0,2.421.779l.4-5.576-.4-.428A3.7,3.7,0,0,1,11.179,28.764ZM5.746,25.888Zm0,0,0,0,0,0S5.745,25.89,5.746,25.888Zm5.7-22.513c.219.877.35,1.754-.833,2.192S8.724,4.6,8.812,4.121,7.146,2.8,6.006,2.826L8.855,7.979l.561-.132a14.192,14.192,0,0,1,3.246-.377l.465-.692L12.662,0A3.4,3.4,0,0,0,11.442,3.375Z" fill="#dcc090"/>
        <path id="パス_45" data-name="パス 45" d="M17.455,17.866a2.5,2.5,0,0,1,.631.281,1.853,1.853,0,0,0-.912.519,1.988,1.988,0,0,1-2.128.488c-.609-.165-.753,1.161-.75,1.177,0,0-.369-1.9-.369-1.9a4.3,4.3,0,0,0,.789-.051,11.689,11.689,0,0,0,1.192-.48A3.033,3.033,0,0,1,17.455,17.866Zm-3.914-5.49a7.108,7.108,0,0,1,.72-.593c.259-.184.53-.36.811-.523s.563-.314.868-.459.58-.266.842-.4a3.734,3.734,0,0,0,.7-.457l.075-.066c.017-.013.05-.047.075-.069l.039-.038c-.549-.243-1.087-.449-1.593-.62a10.665,10.665,0,0,0-3.417-.562v5a3.115,3.115,0,0,1,.306-.54A4.339,4.339,0,0,1,13.541,12.377Zm4.7-2.312c-.048.063-.1.124-.141.179-.026.031-.04.052-.076.091l-.083.09a4.426,4.426,0,0,1-.772.63c-.276.182-.559.342-.822.5s-.516.335-.76.508-.475.355-.687.535a6.1,6.1,0,0,0-.559.549,3.609,3.609,0,0,0-.385.532,2.018,2.018,0,0,0-.206.462,1.348,1.348,0,0,0-.059.33c0,.018,0,.036-.006.053s0,.015,0,.025,0,.028,0,.042,0,.036,0,.053a6.2,6.2,0,0,1,1.181-.446,2.807,2.807,0,0,1,.686-.068c.068-.016.138-.03.21-.04.121-.019.251-.045.392-.054a4.43,4.43,0,0,1,.448-.028,4.924,4.924,0,0,1,.5.009,5.438,5.438,0,0,1,1.091.174,6.243,6.243,0,0,1,1.144.42,7,7,0,0,1,1.1.663l.269.208.232.2.247.229.229.231c.592.622,1.09,1.272,1.585,1.828a8.179,8.179,0,0,0,.75.752,6.486,6.486,0,0,0,.751.565,5.455,5.455,0,0,0,.693.376l.044.019a9.3,9.3,0,0,0-.6-2.37c-.117-.283-.225-.571-.322-.862a11.272,11.272,0,0,0-6.06-6.406Zm3.295,20.456c3.426-4.242,3.956-7.953,3.746-10.422-.069-.008-.139-.018-.212-.032a3.492,3.492,0,0,1-.845-.279,5.745,5.745,0,0,1-.894-.535,8.944,8.944,0,0,1-.889-.731c-.584-.534-1.131-1.148-1.718-1.661l-.22-.188-.215-.173-.245-.182-.222-.147a5.955,5.955,0,0,0-.957-.491,4.681,4.681,0,0,0-.628-.2,6.5,6.5,0,0,1,1.291,2.483,4.593,4.593,0,0,1,.193,2.4,3.074,3.074,0,0,1-.238.742c-.141.3-.315.59-.482.878l-.032.055,0,.005-.006.014-.059.121-.06.123-.015.03,0,.019-.008.037a.956.956,0,0,0-.04.155.734.734,0,0,0-.02.181,1.466,1.466,0,0,0,.258.808,5.886,5.886,0,0,0,.751.912l.471.482.139.143.113.128c.039.045.074.081.116.134l.127.167a4.929,4.929,0,0,1,.7,1.4,6,6,0,0,1,.26,1.447,7.849,7.849,0,0,1-.027,1.337C21.631,29.974,21.587,30.254,21.538,30.521Zm-.674-2.075a5.832,5.832,0,0,0-.344-1.19,3.8,3.8,0,0,0-.617-1.019l-.086-.1c-.031-.036-.078-.08-.115-.119l-.12-.121h0l.01.011-.007-.007-.015-.014-.03-.028-.061-.056-.5-.459a6.177,6.177,0,0,1-.96-1.1,2.765,2.765,0,0,1-.335-.677,6.585,6.585,0,0,0-.018,1.364,2.5,2.5,0,0,1-.722,2,1.335,1.335,0,0,1-1.263.437,6.983,6.983,0,0,1-2.525-1.206.074.074,0,0,0,0-.032.873.873,0,0,1,.268-.729c1.809-.837,1.762-1.816,1.762-1.816a7.39,7.39,0,0,0-2.305-.508c-.072-.005-.143,0-.215,0v3.657a14.226,14.226,0,0,1,2.416,1.156,4.2,4.2,0,0,1-.55,1.667,1.81,1.81,0,0,1-.383-.79,3.7,3.7,0,0,1-1.484,1.745v6a10.727,10.727,0,0,0,2.421-.779c.006-.048.013-.1.023-.146a6.369,6.369,0,0,1,.724-1.882,4.5,4.5,0,0,0,.538-2.891,10.382,10.382,0,0,1,.422,1.177,6.856,6.856,0,0,1,.17,2.269,3.706,3.706,0,0,1-.086.5,18.6,18.6,0,0,0,3.815-3.247c.094-.1.186-.208.276-.312.012-.142.021-.289.027-.444.006-.17.011-.356.01-.541s0-.376-.008-.571A9.289,9.289,0,0,0,20.864,28.445Zm-1.286-2.557Zm0,0,0,0,0,0S19.58,25.89,19.578,25.888Zm-3.11-17.91,2.849-5.153c-1.139-.024-2.893.813-2.806,1.3s-.614,1.885-1.8,1.447-1.052-1.315-.833-2.192A3.4,3.4,0,0,0,12.662,0V7.47a14.182,14.182,0,0,1,3.246.377Z" fill="#dcc090"/>
      </g>
    </g>
  </g>
</svg>
